name analog
datacolumns 19
datarows 51
range 0.47600000000000003 0.501
endheader
time	ground_force_vx	ground_force_vy	ground_force_vz	ground_force_px	ground_force_py	ground_force_pz	l_ground_force_vx	l_ground_force_vy	l_ground_force_vz	l_ground_force_px	l_ground_force_py	l_ground_force_pz	ground_torque_x	ground_torque_y	ground_torque_z	l_ground_torque_x	l_ground_torque_y	l_ground_torque_z
0.47600000000000003	-0.0	-0.0	-0.0	-6.8940253257751465	160.57977294921875	-777.3572387695312	-9.801936149597168	-142.28408813476562	-936.7401123046876	-0.0	-0.0	-0.0	-0.0	-0.0	-0.0	224993.015625	-15661.5419921875	-7629.22998046875
0.47650000000000003	-0.0	-0.0	-0.0	2.5285065174102783	154.52357482910156	-774.1300048828125	-5.141016006469727	-142.1622772216797	-926.1915283203124	-0.0	-0.0	-0.0	-0.0	-0.0	-0.0	222143.359375	-16169.6318359375	-6451.42138671875
0.47700000000000004	-0.0	-0.0	-0.0	7.485665321350098	147.84130859375	-767.8052978515625	-8.999091148376465	-137.3175506591797	-905.9752197265624	-0.0	-0.0	-0.0	-0.0	-0.0	-0.0	218138.09375	-15730.455078125	-7465.5888671875
0.47750000000000004	-0.0	-0.0	-0.0	5.683886528015137	141.76319885253906	-749.4323120117188	-17.06092643737793	-132.6369171142578	-880.3843994140625	-0.0	-0.0	-0.0	-0.0	-0.0	-0.0	211192.40625	-14205.0732421875	-9724.4560546875
0.47800000000000004	-0.0	-0.0	-0.0	-0.6827406287193298	134.8271484375	-726.3603515625	-24.22607040405273	-129.0240020751953	-848.30419921875	-0.0	-0.0	-0.0	-0.0	-0.0	-0.0	203775.890625	-12689.8759765625	-11506.3603515625
0.47850000000000004	-0.0	-0.0	-0.0	-10.646543502807615	129.14234924316406	-697.0867309570312	-27.417543411254883	-126.44722747802734	-819.0321655273438	-0.0	-0.0	-0.0	-0.0	-0.0	-0.0	196486.265625	-11305.9111328125	-12157.1806640625
0.47900000000000004	-0.0	-0.0	-0.0	-18.323673248291016	124.13996887207033	-667.72265625	-27.049053192138672	-122.84391021728516	-793.1735229492188	-0.0	-0.0	-0.0	-0.0	-0.0	-0.0	190070.734375	-10192.046875	-12061.142578125
0.47950000000000004	-0.0	-0.0	-0.0	-22.938161849975582	119.68186950683594	-637.6751708984375	-24.29911994934082	-119.92565155029295	-770.160888671875	-0.0	-0.0	-0.0	-0.0	-0.0	-0.0	184211.5625	-9937.03125	-11315.611328125
0.48	-0.0	-0.0	-0.0	-24.72215461730957	115.14383697509766	-610.1589965820312	-20.48095703125	-117.43988800048828	-747.4451293945312	-0.0	-0.0	-0.0	-0.0	-0.0	-0.0	178722.1875	-9960.5830078125	-10127.6650390625
0.4805	-0.0	-0.0	-0.0	-24.80583381652832	110.40249633789062	-587.5862426757812	-17.21540069580078	-112.59552764892578	-727.8871459960938	-0.0	-0.0	-0.0	-0.0	-0.0	-0.0	173799.0	-9727.9873046875	-9357.1943359375
0.481	-0.0	-0.0	-0.0	-25.25531768798828	105.42903900146484	-563.9036865234375	-16.139930725097656	-108.4355926513672	-704.5096435546875	-0.0	-0.0	-0.0	-0.0	-0.0	-0.0	168020.84375	-9199.5458984375	-9146.48828125
0.4815	-0.0	-0.0	-0.0	-24.63579750061035	101.04993438720705	-544.8888549804688	-16.156009674072266	-104.72303009033205	-682.5216064453125	-0.0	-0.0	-0.0	-0.0	-0.0	-0.0	162777.734375	-8854.8017578125	-9176.986328125
0.482	-0.0	-0.0	-0.0	-24.985645294189453	97.13707733154295	-526.1983642578125	-16.940282821655273	-100.31958770751952	-659.8486938476562	-0.0	-0.0	-0.0	-0.0	-0.0	-0.0	157638.515625	-8096.54638671875	-9381.12109375
0.4825	-0.0	-0.0	-0.0	-25.68437767028809	93.82958221435548	-510.7243041992188	-17.030757904052734	-97.04678344726562	-641.3375854492188	-0.0	-0.0	-0.0	-0.0	-0.0	-0.0	152436.28125	-7642.029296875	-9433.9638671875
0.483	-0.0	-0.0	-0.0	-24.802135467529297	89.82087707519531	-498.3113708496094	-16.503559112548828	-93.87928009033205	-624.5596313476562	-0.0	-0.0	-0.0	-0.0	-0.0	-0.0	148288.390625	-7673.13623046875	-8937.0361328125
0.4835	-0.0	-0.0	-0.0	-23.456056594848636	86.27034759521484	-485.9693298339844	-14.987202644348145	-90.87484741210938	-607.1488647460938	-0.0	-0.0	-0.0	-0.0	-0.0	-0.0	143821.421875	-7653.029296875	-8544.03125
0.484	-0.0	-0.0	-0.0	-20.77674102783203	83.23384857177734	-474.2961120605469	-12.846881866455078	-88.04866027832031	-592.0719604492188	-0.0	-0.0	-0.0	-0.0	-0.0	-0.0	140417.28125	-7776.53173828125	-7917.26611328125
0.4845	-0.0	-0.0	-0.0	-18.7099666595459	80.65695190429688	-465.4371643066406	-10.813223838806152	-85.31245422363281	-577.45947265625	-0.0	-0.0	-0.0	-0.0	-0.0	-0.0	137015.078125	-7842.23583984375	-7087.81396484375
0.485	-0.0	-0.0	-0.0	-15.1510009765625	78.7750244140625	-454.5250549316406	-9.036134719848633	-82.75587463378906	-564.1377563476562	-0.0	-0.0	-0.0	-0.0	-0.0	-0.0	133695.765625	-7864.640625	-6583.19970703125
0.4855	-0.0	-0.0	-0.0	-12.126859664916992	76.11016845703125	-447.0744018554688	-7.535887718200684	-79.83829498291016	-549.1917114257812	-0.0	-0.0	-0.0	-0.0	-0.0	-0.0	130358.6875	-8015.1044921875	-6162.56103515625
0.486	-0.0	-0.0	-0.0	-9.719696044921877	74.77616119384766	-434.0525512695313	-6.558661937713623	-77.26818084716797	-535.5811157226562	-0.0	-0.0	-0.0	-0.0	-0.0	-0.0	126707.0859375	-7739.6044921875	-5805.80078125
0.4865	-0.0	-0.0	-0.0	-7.0531511306762695	72.8250503540039	-423.7667541503906	-5.674594402313232	-74.35965728759766	-522.9664916992188	-0.0	-0.0	-0.0	-0.0	-0.0	-0.0	123963.984375	-8265.9375	-5538.98193359375
0.487	-0.0	-0.0	-0.0	-5.8811750411987305	71.74057006835938	-411.7971496582031	-4.527073383331299	-71.62186431884766	-509.0130615234375	-0.0	-0.0	-0.0	-0.0	-0.0	-0.0	120442.375	-8206.9775390625	-5153.76220703125
0.4875	-0.0	-0.0	-0.0	-4.453935623168945	69.61610412597656	-400.8435974121094	-3.908818483352661	-68.88125610351562	-495.7407531738281	-0.0	-0.0	-0.0	-0.0	-0.0	-0.0	117302.4375	-8179.79833984375	-4972.31640625
0.488	-0.0	-0.0	-0.0	-3.025468111038208	68.0841064453125	-390.9600524902344	-3.548431396484375	-65.88664245605469	-481.8079833984375	-0.0	-0.0	-0.0	-0.0	-0.0	-0.0	114162.5234375	-8388.921875	-4678.76953125
0.4885	-0.0	-0.0	-0.0	-1.8721755743026731	65.7757568359375	-381.7382507324219	-2.926142454147339	-63.93574523925781	-469.9063720703125	-0.0	-0.0	-0.0	-0.0	-0.0	-0.0	111209.546875	-8128.38671875	-4528.57275390625
0.489	-0.0	-0.0	-0.0	-0.527946412563324	63.54267120361328	-370.4616394042969	-2.8413209915161133	-61.81492233276367	-458.7598571777344	-0.0	-0.0	-0.0	-0.0	-0.0	-0.0	108308.8359375	-7955.38916015625	-4465.60498046875
0.4895	-0.0	-0.0	-0.0	-0.0047320299781858	60.959285736083984	-357.77130126953125	-2.139072895050049	-59.70172119140625	-446.8943481445313	-0.0	-0.0	-0.0	-0.0	-0.0	-0.0	105940.078125	-7917.83544921875	-4229.81640625
0.49	-0.0	-0.0	-0.0	0.5352630615234375	59.17456817626953	-348.20819091796875	-2.306480407714844	-57.8494987487793	-437.8121948242188	-0.0	-0.0	-0.0	-0.0	-0.0	-0.0	103715.1953125	-8103.86767578125	-4286.736328125
0.4905	-0.0	-0.0	-0.0	0.2698804140090942	57.03110122680664	-335.883056640625	-2.8387451171875	-56.265655517578125	-429.4518127441406	-0.0	-0.0	-0.0	-0.0	-0.0	-0.0	101578.875	-8021.38720703125	-4170.8681640625
0.491	-0.0	-0.0	-0.0	0.183861032128334	54.992374420166016	-328.7976379394531	-2.8329758644104004	-55.54400634765625	-422.7863159179688	-0.0	-0.0	-0.0	-0.0	-0.0	-0.0	99428.71875	-8077.78857421875	-4169.08837890625
0.4915	-0.0	-0.0	-0.0	0.2634252607822418	53.20980453491211	-319.98101806640625	-2.392956018447876	-54.04841995239258	-417.8905334472656	-0.0	-0.0	-0.0	-0.0	-0.0	-0.0	98019.6484375	-8232.125	-4137.984375
0.492	-0.0	-0.0	-0.0	-0.9741337299346924	52.48550796508789	-313.25439453125	-1.687696099281311	-53.07915496826172	-412.67132568359375	-0.0	-0.0	-0.0	-0.0	-0.0	-0.0	97231.265625	-8424.1953125	-3900.30517578125
0.4925	-0.0	-0.0	-0.0	-0.8911155462265015	50.18437576293945	-305.85772705078125	-0.6209754943847656	-52.20233917236328	-408.8357238769531	-0.0	-0.0	-0.0	-0.0	-0.0	-0.0	95865.4140625	-8310.072265625	-3662.732177734375
0.493	-0.0	-0.0	-0.0	-0.8921051025390625	49.371578216552734	-298.43707275390625	-0.4517391622066498	-52.02147674560547	-402.5476684570313	-0.0	-0.0	-0.0	-0.0	-0.0	-0.0	94922.1328125	-8125.01611328125	-3601.514892578125
0.4935	-0.0	-0.0	-0.0	-0.9803988337516784	48.56324768066406	-294.5411682128906	-0.971870481967926	-51.93118667602539	-396.287109375	-0.0	-0.0	-0.0	-0.0	-0.0	-0.0	93725.2734375	-8042.25927734375	-3308.5703125
0.494	-0.0	-0.0	-0.0	-1.7761902809143066	47.23287963867188	-289.25439453125	-0.3586891293525696	-52.0205192565918	-392.4388427734375	-0.0	-0.0	-0.0	-0.0	-0.0	-0.0	92341.9375	-8064.896484375	-3246.20556640625
0.4945	-0.0	-0.0	-0.0	-0.9855889678001404	46.08383560180664	-286.0689697265625	-0.7069104909896851	-51.846675872802734	-388.2492980957031	-0.0	-0.0	-0.0	-0.0	-0.0	-0.0	91537.9296875	-8028.2333984375	-3217.697265625
0.495	-0.0	-0.0	-0.0	-1.2489471435546875	45.54809188842773	-287.1061706542969	-0.794840931892395	-52.54963684082031	-387.56878662109375	-0.0	-0.0	-0.0	-0.0	-0.0	-0.0	91048.9296875	-7857.5146484375	-3187.37060546875
0.4955	-0.0	-0.0	-0.0	-1.07211172580719	45.72072982788086	-285.0256652832031	-0.709686279296875	-52.63886642456055	-387.2193603515625	-0.0	-0.0	-0.0	-0.0	-0.0	-0.0	90658.1875	-7966.95703125	-2979.990234375
0.496	-0.0	-0.0	-0.0	-0.7106585502624512	45.2767333984375	-283.95965576171875	-0.2669598758220672	-53.25880432128906	-386.5141296386719	-0.0	-0.0	-0.0	-0.0	-0.0	-0.0	90298.96875	-8350.474609375	-2773.580078125
0.4965	-0.0	-0.0	-0.0	-0.5309433937072754	45.09782409667969	-282.89715576171875	-0.2661323547363281	-53.6995849609375	-386.52642822265625	-0.0	-0.0	-0.0	-0.0	-0.0	-0.0	90388.078125	-8351.5107421875	-2625.05810546875
0.497	-0.0	-0.0	-0.0	0.0878148451447486	45.456504821777344	-280.091064453125	-0.2638352215290069	-54.22646713256836	-388.2505493164063	-0.0	-0.0	-0.0	-0.0	-0.0	-0.0	90745.078125	-8699.4775390625	-2387.8525390625
0.4975	-0.0	-0.0	-0.0	-0.4506823420524597	45.280887603759766	-283.9435729980469	0.6195165514945984	-54.40906524658203	-389.6560668945313	-0.0	-0.0	-0.0	-0.0	-0.0	-0.0	90822.828125	-8886.3349609375	-2266.138671875
0.498	-0.0	-0.0	-0.0	-0.6213487386703491	45.63539123535156	-281.8252258300781	1.4207590818405151	-55.11342239379883	-389.3067932128906	-0.0	-0.0	-0.0	-0.0	-0.0	-0.0	90996.7421875	-9191.4658203125	-1881.3592529296875
0.4985	-0.0	-0.0	-0.0	-0.3580406010150909	45.81003189086914	-282.1860656738281	2.569927453994751	-55.64266204833984	-391.4095458984375	-0.0	-0.0	-0.0	-0.0	-0.0	-0.0	91224.5078125	-9940.3759765625	-1496.6298828125
0.499	-0.0	-0.0	-0.0	-0.2698829174041748	45.54338836669922	-278.9898681640625	3.282299041748047	-56.5227165222168	-392.7806091308594	-0.0	-0.0	-0.0	-0.0	-0.0	-0.0	91013.359375	-10538.7705078125	-1226.973876953125
0.4995	-0.0	-0.0	-0.0	-0.2665787041187286	45.36527633666992	-275.1334533691406	4.348625183105469	-56.96272277832031	-392.4487609863281	-0.0	-0.0	-0.0	-0.0	-0.0	-0.0	91364.640625	-10944.0908203125	-752.5762939453125
0.5	-0.0	-0.0	-0.0	0.1794229596853256	45.09547805786133	-274.77398681640625	5.415372848510742	-57.23416519165039	-393.49163818359375	-0.0	-0.0	-0.0	-0.0	-0.0	-0.0	91641.015625	-11352.1484375	-367.0381164550781
0.5005000000000001	-0.0	-0.0	-0.0	0.712755024433136	45.00807189941406	-271.5917053222656	6.209217548370361	-57.849639892578125	-392.4400634765625	-0.0	-0.0	-0.0	-0.0	-0.0	-0.0	91151.53125	-11600.7412109375	-10.098137855529783
0.501	-0.0	-0.0	-0.0	0.8942455649375916	43.94001007080078	-268.4116516113281	7.005646705627441	-58.29380798339844	-391.0517883300781	-0.0	-0.0	-0.0	-0.0	-0.0	-0.0	90975.0	-11961.1611328125	344.63623046875
